<svg width="1440" height="215" viewBox="0 0 1440 215" fill="none" xmlns="http://www.w3.org/2000/svg">
<path d="M1445 -2V69.515C1302.15 90.2945 1206.03 76.7295 1034.36 106.039C869.801 134.134 854.295 148.437 659.728 184.195C390.709 233.635 263.155 221.145 1 164.017V-2H1445Z" fill="url(#paint0_linear)"/>
<path d="M1445 -2V69.515C1302.15 90.2945 1206.03 76.7295 1034.36 106.039C869.801 134.134 854.295 148.437 659.728 184.195C390.709 233.635 263.155 221.145 1 164.017V-2H1445Z" fill="url(#paint1_linear)" fill-opacity="0.5"/>
<path d="M1445 -2V69.515C1302.15 90.2945 1206.03 76.7295 1034.36 106.039C869.801 134.134 854.295 148.437 659.728 184.195C390.709 233.635 263.155 221.145 1 164.017V-2H1445Z" fill="url(#paint2_angular)"/>
<path d="M165.5 61C191.5 30 272 0.5 272 0.5H-1.5V163L110.5 187.5C110.5 187.5 122.5 188 126 163C129.5 138 139.5 92 165.5 61Z" fill="#86D0EF" fill-opacity="0.09"/>
<path d="M1075 99.5L975 0H1440V70C1378.5 79 1343 81 1263.5 84C1154 89.5 1116.5 94 1075 99.5Z" fill="url(#paint3_linear)" fill-opacity="0.31"/>
<defs>
<linearGradient id="paint0_linear" x1="1091.38" y1="72.3245" x2="939.486" y2="390.436" gradientUnits="userSpaceOnUse">
<stop stop-color="#86D0EF"/>
<stop offset="0.592094" stop-color="#3A5ACA" stop-opacity="0.91"/>
<stop offset="1" stop-color="#4000DE"/>
</linearGradient>
<linearGradient id="paint1_linear" x1="486" y1="97.5" x2="946.5" y2="129" gradientUnits="userSpaceOnUse">
<stop stop-color="#E4E1ED" stop-opacity="0.41"/>
<stop offset="1" stop-color="white" stop-opacity="0.55"/>
</linearGradient>
<radialGradient id="paint2_angular" cx="0" cy="0" r="1" gradientUnits="userSpaceOnUse" gradientTransform="translate(888.5 574.5) rotate(-154.553) scale(836.672 1538.45)">
<stop offset="0.0713485" stop-color="#4A72FF" stop-opacity="0.34"/>
<stop offset="0.20698" stop-color="white" stop-opacity="0.41"/>
<stop offset="0.373259" stop-color="#9BEEFA" stop-opacity="0.27"/>
<stop offset="0.472222" stop-color="#3A5ACA" stop-opacity="0.91"/>
</radialGradient>
<linearGradient id="paint3_linear" x1="1194" y1="-6.42028e-06" x2="1397" y2="57.5" gradientUnits="userSpaceOnUse">
<stop stop-color="white"/>
<stop offset="0.562543" stop-color="white" stop-opacity="0"/>
</linearGradient>
</defs>
</svg>
