<?xml version="1.0" encoding="utf-8"?>
<!-- Generator: Adobe Illustrator 25.0.0, SVG Export Plug-In . SVG Version: 6.00 Build 0)  -->
<svg version="1.1" id="Layer_1" xmlns="http://www.w3.org/2000/svg" xmlns:xlink="http://www.w3.org/1999/xlink" x="0px" y="0px"
	 viewBox="0 0 900 60" style="enable-background:new 0 0 900 60;" xml:space="preserve">
<style type="text/css">
	.st0{fill:url(#SVGID_1_);}
	.st1{fill:url(#SVGID_2_);}
	.st2{opacity:0.46;}
	.st3{opacity:7.000000e-02;fill:url(#SVGID_3_);fill-opacity:0.5;}
	.st4{fill:#F2F2F2;fill-opacity:9.000000e-02;}
	.st5{opacity:0.57;}
	.st6{opacity:9.000000e-02;}
	.st7{clip-path:url(#SVGID_5_);}
	.st8{fill:url(#SVGID_8_);}
</style>
<linearGradient id="SVGID_1_" gradientUnits="userSpaceOnUse" x1="491.5847" y1="119.4823" x2="403.2543" y2="-65.5079" gradientTransform="matrix(1 0 0 -1 0 62)">
	<stop  offset="0" style="stop-color:#86D0EF"/>
	<stop  offset="0.5921" style="stop-color:#3A5ACA;stop-opacity:0.91"/>
	<stop  offset="1" style="stop-color:#4000DE"/>
</linearGradient>
<path class="st0" d="M899.6-4.1v67.3c-91.8,0-148,0-257.1,0c-101.6,0-105.8,0.4-230.9,0.4c-177,0-243.5,0.4-411.2,0.4V-4.1H899.6z"
	/>
<radialGradient id="SVGID_2_" cx="-509.3947" cy="571.2281" r="1.0323" gradientTransform="matrix(-470.4769 -140.7619 -411.6499 543.9409 -3942.196 -382187.8125)" gradientUnits="userSpaceOnUse">
	<stop  offset="0" style="stop-color:#4A72FF;stop-opacity:0.34"/>
	<stop  offset="6.424581e-02" style="stop-color:#FFFFFF;stop-opacity:0"/>
	<stop  offset="0.2207" style="stop-color:#5684FE;stop-opacity:0.332"/>
	<stop  offset="0.2224" style="stop-color:#9BEEFA;stop-opacity:0.27"/>
	<stop  offset="0.6622" style="stop-color:#3A5ACA;stop-opacity:0.91"/>
</radialGradient>
<path class="st1" d="M899.6-4.1v67.3c-89.9,0-97.9,0-189.2,0c-107.3,0-189.7,0.4-301.9,0.4c-166.1,0-238,0.4-408.1,0.4V-4.1H899.6z"
	/>
<g class="st2">
	<image style="overflow:visible;" width="972" height="142" xlink:href="8B4E466C.png"  transform="matrix(1 0 0 1 -36 -41)">
	</image>
</g>
<linearGradient id="SVGID_3_" gradientUnits="userSpaceOnUse" x1="305.2248" y1="54.0668" x2="591.4121" y2="34.4905" gradientTransform="matrix(1 0 0 -1 0 62)">
	<stop  offset="0" style="stop-color:#E4E1ED;stop-opacity:0.41"/>
	<stop  offset="1" style="stop-color:#FFFFFF;stop-opacity:0.55"/>
</linearGradient>
<path class="st3" d="M899.6-4.1v18C821,31.7,738.4,14.8,665.5,25.4c-8.1,1.2-29.4,5.8-34.6,6.8c-37.9,7-104.1,7.3-220.6,7.3
	c-170.6,0-238,0.3-409.9,0.3V-3.8L899.6-4.1z"/>
<path class="st4" d="M86.1,54.7c23.9,0,55.7-16.8,74.7-35c18.5-17.8,69.1-23.7,69.1-23.7H0.4v68.5"/>
<g class="st5">
	<g class="st6">
		<defs>
			<path id="SVGID_4_" class="st6" d="M190.3,64.1c-53.7-26.6,54-40.1,100.4-46.6C414.9,0.2,506.2-4.5,506.2-4.5H0.4v68.5"/>
		</defs>
		<clipPath id="SVGID_5_">
			<use xlink:href="#SVGID_4_"  style="overflow:visible;"/>
		</clipPath>
		<g class="st7">
			<g>
				<defs>
					<rect id="SVGID_6_" x="-4.6" y="-9.5" width="515.8" height="78.5"/>
				</defs>
				<clipPath id="SVGID_7_">
					<use xlink:href="#SVGID_6_"  style="overflow:visible;"/>
				</clipPath>
				<g style="clip-path:url(#SVGID_7_);">
					
						<image style="overflow:visible;" width="1076" height="164" xlink:href="8B4E466C.jpg"  transform="matrix(0.48 0 0 0.48 -4.8 -9.6)">
					</image>
				</g>
			</g>
		</g>
	</g>
</g>
<linearGradient id="SVGID_8_" gradientUnits="userSpaceOnUse" x1="0.3852" y1="31.4219" x2="899.6148" y2="31.4219">
	<stop  offset="0" style="stop-color:#FFFFFF;stop-opacity:0"/>
	<stop  offset="6.333363e-02" style="stop-color:#E4E3ED;stop-opacity:3.800018e-02"/>
	<stop  offset="0.2012" style="stop-color:#AFADC9;stop-opacity:0.1207"/>
	<stop  offset="0.3403" style="stop-color:#827EAA;stop-opacity:0.2042"/>
	<stop  offset="0.478" style="stop-color:#5D5891;stop-opacity:0.2868"/>
	<stop  offset="0.6138" style="stop-color:#403A7D;stop-opacity:0.3683"/>
	<stop  offset="0.7473" style="stop-color:#2B256F;stop-opacity:0.4484"/>
	<stop  offset="0.8773" style="stop-color:#1F1867;stop-opacity:0.5264"/>
	<stop  offset="1" style="stop-color:#1B1464;stop-opacity:0.6"/>
</linearGradient>
<rect x="0.4" y="-0.8" class="st8" width="899.2" height="64.4"/>
</svg>
