<?xml version="1.0" encoding="UTF-8" standalone="no"?>
<!-- Created with Inkscape (http://www.inkscape.org/) -->

<svg
   xmlns:dc="http://purl.org/dc/elements/1.1/"
   xmlns:cc="http://creativecommons.org/ns#"
   xmlns:rdf="http://www.w3.org/1999/02/22-rdf-syntax-ns#"
   xmlns:svg="http://www.w3.org/2000/svg"
   xmlns="http://www.w3.org/2000/svg"
   xmlns:sodipodi="http://sodipodi.sourceforge.net/DTD/sodipodi-0.dtd"
   xmlns:inkscape="http://www.inkscape.org/namespaces/inkscape"
   version="1.1"
   id="svg2"
   xml:space="preserve"
   width="306"
   height="49"
   viewBox="0 0 306 49"
   sodipodi:docname="careloop logo white big.svg"
   inkscape:version="0.92.2 5c3e80d, 2017-08-06"><metadata
     id="metadata8"><rdf:RDF><cc:Work
         rdf:about=""><dc:format>image/svg+xml</dc:format><dc:type
           rdf:resource="http://purl.org/dc/dcmitype/StillImage" /><dc:title></dc:title></cc:Work></rdf:RDF></metadata><defs
     id="defs6"><clipPath
       clipPathUnits="userSpaceOnUse"
       id="clipPath20"><path
         d="M 0,400 H 400 V 0 H 0 Z"
         id="path18"
         inkscape:connector-curvature="0" /></clipPath><clipPath
       clipPathUnits="userSpaceOnUse"
       id="clipPath72"><path
         d="m 125.455,170.566 h -2.284 -8.118 c -1.722,0 -3.396,-0.339 -4.974,-1.006 v 0 c -1.523,-0.644 -2.889,-1.565 -4.061,-2.737 v 0 c -1.172,-1.172 -2.092,-2.538 -2.737,-4.061 v 0 c -0.667,-1.578 -1.006,-3.251 -1.006,-4.975 v 0 c 0,-1.723 0.339,-3.396 1.006,-4.975 v 0 c 0.645,-1.523 1.565,-2.889 2.737,-4.061 v 0 c 1.172,-1.172 2.538,-2.092 4.06,-2.737 v 0 c 1.579,-0.667 3.253,-1.006 4.975,-1.006 v 0 h 8.118 2.284 1.04 c 0.733,0 1.327,0.595 1.327,1.327 v 0 c 0,0.733 -0.594,1.327 -1.327,1.327 v 0 h -1.04 -2.284 c -1.366,0 -2.692,0.268 -3.942,0.797 v 0 c -1.206,0.51 -2.288,1.24 -3.217,2.169 v 0 c -0.93,0.929 -1.659,2.012 -2.169,3.217 v 0 c -0.529,1.25 -0.797,2.577 -0.797,3.942 v 0 c 0,1.365 0.268,2.692 0.797,3.942 v 0 c 0.51,1.206 1.239,2.289 2.169,3.218 v 0 c 0.929,0.928 2.011,1.658 3.217,2.169 v 0 c 1.25,0.528 2.576,0.796 3.942,0.796 v 0 h 2.284 1.04 c 0.733,0 1.327,0.594 1.327,1.327 v 0 c 0,0.732 -0.594,1.327 -1.327,1.327 v 0 z m -14.343,-22.107 c -1.206,0.51 -2.288,1.24 -3.217,2.169 v 0 c -0.93,0.929 -1.659,2.012 -2.169,3.217 v 0 c -0.529,1.25 -0.797,2.577 -0.797,3.942 v 0 c 0,1.365 0.268,2.692 0.797,3.942 v 0 c 0.51,1.206 1.239,2.289 2.169,3.218 v 0 c 0.929,0.928 2.011,1.658 3.217,2.169 v 0 c 1.249,0.528 2.576,0.796 3.941,0.796 v 0 h 0.321 c -0.433,-0.335 -0.847,-0.697 -1.239,-1.089 v 0 c -1.171,-1.172 -2.092,-2.538 -2.737,-4.061 v 0 c -0.667,-1.578 -1.006,-3.251 -1.006,-4.975 v 0 c 0,-1.723 0.339,-3.396 1.006,-4.975 v 0 c 0.645,-1.523 1.566,-2.889 2.737,-4.061 v 0 c 0.392,-0.391 0.806,-0.754 1.239,-1.089 v 0 h -0.321 c -1.365,0 -2.692,0.268 -3.941,0.797 m 19.219,18.364 c -0.519,-0.518 -0.519,-1.358 0,-1.876 v 0 c 1.911,-1.913 2.965,-4.455 2.965,-7.16 v 0 c 0,-2.704 -1.054,-5.247 -2.965,-7.159 v 0 c -0.519,-0.519 -0.519,-1.358 0,-1.877 v 0 c 0.258,-0.259 0.598,-0.388 0.938,-0.388 v 0 c 0.34,0 0.679,0.129 0.938,0.388 v 0 c 4.983,4.982 4.983,13.09 0,18.072 v 0 c -0.259,0.259 -0.599,0.389 -0.938,0.389 v 0 c -0.34,0 -0.679,-0.13 -0.938,-0.389"
         id="path70"
         inkscape:connector-curvature="0" /></clipPath><clipPath
       clipPathUnits="userSpaceOnUse"
       id="clipPath1772"><path
         d="M 0,400 H 400 V 0 H 0 Z"
         id="path1770"
         inkscape:connector-curvature="0" /></clipPath></defs><sodipodi:namedview
     pagecolor="#ffffff"
     bordercolor="#666666"
     borderopacity="1"
     objecttolerance="10"
     gridtolerance="10"
     guidetolerance="10"
     inkscape:pageopacity="0"
     inkscape:pageshadow="2"
     inkscape:window-width="1120"
     inkscape:window-height="783"
     id="namedview4"
     showgrid="false"
     inkscape:zoom="3.5400001"
     inkscape:cx="71.426399"
     inkscape:cy="90.109893"
     inkscape:window-x="0"
     inkscape:window-y="0"
     inkscape:window-maximized="0"
     inkscape:current-layer="g14" /><g
     id="g10"
     inkscape:groupmode="layer"
     inkscape:label="careloop-final-logo-designs (1)"
     transform="matrix(1.3333333,0,0,-1.3333333,0,49.00002)"><g
       id="g14"
       transform="translate(-101.5,-228.70339)"><g
         id="g16"
         clip-path="url(#clipPath20)"
         style="fill:#ffffff;fill-opacity:1"
         transform="matrix(1.3777165,0,0,1.3777165,-38.631117,-86.661144)"><g
           id="g22"
           transform="translate(111.3984,237.2373)"
           style="fill:#ffffff;fill-opacity:1"><path
             d="M 0,0 C 0.644,-1.522 1.565,-2.888 2.737,-4.061 3.128,-4.452 3.542,-4.815 3.976,-5.149 H 3.655 c -1.365,0 -2.692,0.268 -3.941,0.796 -1.206,0.51 -2.289,1.24 -3.218,2.169 -0.929,0.929 -1.659,2.012 -2.169,3.218 -0.528,1.25 -0.796,2.576 -0.796,3.942 0,1.365 0.268,2.691 0.796,3.941 0.51,1.206 1.24,2.289 2.169,3.218 0.929,0.929 2.012,1.659 3.218,2.169 1.249,0.529 2.576,0.797 3.941,0.797 H 3.976 C 3.542,14.766 3.128,14.403 2.737,14.011 1.565,12.839 0.644,11.473 0,9.951 -0.667,8.373 -1.006,6.699 -1.006,4.976 -1.006,3.252 -0.667,1.579 0,0 m 4.613,12.135 c 0.929,0.929 2.012,1.659 3.218,2.169 1.25,0.529 2.576,0.797 3.941,0.797 h 2.284 1.041 c 0.733,0 1.326,0.593 1.326,1.326 0,0.733 -0.593,1.327 -1.326,1.327 H 14.056 11.772 3.655 c -1.722,0 -3.397,-0.338 -4.975,-1.006 -1.522,-0.644 -2.888,-1.564 -4.06,-2.737 -1.172,-1.172 -2.093,-2.538 -2.737,-4.06 -0.668,-1.578 -1.006,-3.253 -1.006,-4.975 0,-1.724 0.338,-3.397 1.006,-4.976 0.644,-1.522 1.565,-2.888 2.737,-4.061 1.172,-1.171 2.538,-2.092 4.06,-2.736 1.578,-0.667 3.253,-1.006 4.975,-1.006 h 8.117 2.284 1.041 c 0.733,0 1.326,0.594 1.326,1.327 0,0.733 -0.593,1.327 -1.326,1.327 h -1.041 -2.284 c -1.365,0 -2.691,0.268 -3.941,0.796 -1.206,0.51 -2.289,1.24 -3.218,2.169 -0.929,0.929 -1.658,2.012 -2.169,3.218 -0.528,1.25 -0.796,2.576 -0.796,3.942 0,1.365 0.268,2.691 0.796,3.941 0.511,1.206 1.24,2.289 2.169,3.218"
             style="fill:#ffffff;fill-opacity:1;fill-rule:nonzero;stroke:none"
             id="path24"
             inkscape:connector-curvature="0" /></g><g
           id="g26"
           transform="translate(132.207,251.2485)"
           style="fill:#ffffff;fill-opacity:1"><path
             d="m 0,0 c -0.518,0.519 -1.358,0.519 -1.876,0 -0.519,-0.518 -0.519,-1.358 0,-1.876 1.912,-1.913 2.965,-4.455 2.965,-7.16 0,-2.704 -1.053,-5.247 -2.965,-7.159 -0.519,-0.518 -0.519,-1.358 0,-1.877 0.258,-0.259 0.598,-0.388 0.938,-0.388 0.339,0 0.679,0.129 0.938,0.388 4.982,4.983 4.982,13.09 0,18.072"
             style="fill:#ffffff;fill-opacity:1;fill-rule:nonzero;stroke:none"
             id="path28"
             inkscape:connector-curvature="0" /></g><g
           id="g30"
           transform="translate(155.5425,243.4712)"
           style="fill:#ffffff;fill-opacity:1"><path
             d="m 0,0 c -0.217,0 -0.326,0.087 -0.369,0.348 -0.217,1.497 -1.584,2.647 -3.537,2.647 -2.235,0 -4.058,-1.715 -4.058,-4.253 0,-2.517 1.736,-4.253 4.058,-4.253 1.975,0 3.299,0.976 3.537,2.43 0.043,0.282 0.152,0.369 0.412,0.369 h 2.17 c 0.174,0 0.369,-0.109 0.369,-0.326 0,-2.799 -2.625,-4.947 -6.488,-4.947 -3.927,0 -7.009,2.712 -7.009,6.727 0,3.992 3.082,6.726 7.009,6.726 4.123,0 6.488,-2.603 6.488,-5.186 C 2.582,0.13 2.474,0 2.235,0 Z"
             style="fill:#ffffff;fill-opacity:1;fill-rule:nonzero;stroke:none"
             id="path32"
             inkscape:connector-curvature="0" /></g><g
           id="g34"
           transform="translate(165.6982,240.2598)"
           style="fill:#ffffff;fill-opacity:1"><path
             d="M 0,0 H 4.297 L 3.125,2.409 C 2.669,3.342 2.213,4.73 2.213,4.73 h -0.13 c 0,0 -0.456,-1.388 -0.911,-2.321 z M 5.295,-2.3 H -1.042 L -1.975,-4.275 C -2.104,-4.535 -2.17,-4.557 -2.43,-4.557 h -2.582 c -0.131,0 -0.174,0.087 -0.174,0.152 0,0.065 0.043,0.174 0.087,0.26 L 1.02,8.463 H 3.277 L 9.396,-4.145 c 0.043,-0.086 0.087,-0.195 0.087,-0.26 0,-0.065 -0.044,-0.152 -0.174,-0.152 H 6.727 c -0.26,0 -0.326,0.022 -0.456,0.282 z"
             style="fill:#ffffff;fill-opacity:1;fill-rule:nonzero;stroke:none"
             id="path36"
             inkscape:connector-curvature="0" /></g><g
           id="g38"
           transform="translate(181.4097,246.249)"
           style="fill:#ffffff;fill-opacity:1"><path
             d="m 0,0 v -4.123 h 3.146 c 1.627,0 2.669,0.759 2.669,2.04 C 5.815,-0.803 4.773,0 3.146,0 Z m -2.951,2.213 c 0,0.131 0.13,0.261 0.26,0.261 h 6.032 c 3.169,0 5.426,-1.715 5.426,-4.557 0,-1.975 -1.194,-3.298 -2.93,-3.906 v -0.044 c 0,0 0.391,-0.412 0.694,-0.867 l 2.192,-3.212 c 0.109,-0.152 0.131,-0.239 0.131,-0.282 0,-0.087 -0.044,-0.152 -0.174,-0.152 H 5.793 c -0.108,0 -0.26,0.087 -0.347,0.217 L 2.799,-6.466 H 0 v -3.82 c 0,-0.13 -0.13,-0.26 -0.261,-0.26 h -2.43 c -0.13,0 -0.26,0.13 -0.26,0.26 z"
             style="fill:#ffffff;fill-opacity:1;fill-rule:nonzero;stroke:none"
             id="path40"
             inkscape:connector-curvature="0" /></g><g
           id="g42"
           transform="translate(197.0771,241.1279)"
           style="fill:#ffffff;fill-opacity:1"><path
             d="m 0,0 v -2.951 h 7.638 c 0.13,0 0.304,-0.174 0.304,-0.304 v -1.866 c 0,-0.13 -0.174,-0.304 -0.304,-0.304 H -2.691 c -0.13,0 -0.26,0.13 -0.26,0.26 V 7.334 c 0,0.131 0.13,0.261 0.26,0.261 H 7.508 c 0.13,0 0.304,-0.174 0.304,-0.304 V 5.425 C 7.812,5.294 7.638,5.121 7.508,5.121 H 0 V 2.474 H 6.857 C 6.987,2.474 7.161,2.3 7.161,2.17 V 0.304 C 7.161,0.173 6.987,0 6.857,0 Z"
             style="fill:#ffffff;fill-opacity:1;fill-rule:nonzero;stroke:none"
             id="path44"
             inkscape:connector-curvature="0" /></g><g
           id="g46"
           transform="translate(211.7896,238.1768)"
           style="fill:#ffffff;fill-opacity:1"><path
             d="m 0,0 h 6.423 c 0.13,0 0.304,-0.174 0.304,-0.304 V -2.17 c 0,-0.13 -0.174,-0.304 -0.304,-0.304 h -9.114 c -0.13,0 -0.26,0.13 -0.26,0.261 v 12.499 c 0,0.13 0.13,0.26 0.26,0.26 h 2.431 c 0.13,0 0.26,-0.13 0.26,-0.26 z"
             style="fill:#ffffff;fill-opacity:1;fill-rule:nonzero;stroke:none"
             id="path48"
             inkscape:connector-curvature="0" /></g><g
           id="g50"
           transform="translate(223.6377,242.2129)"
           style="fill:#ffffff;fill-opacity:1"><path
             d="m 0,0 c 0,-2.625 1.931,-4.253 4.231,-4.253 2.301,0 4.232,1.628 4.232,4.253 0,2.625 -1.931,4.253 -4.232,4.253 C 1.931,4.253 0,2.625 0,0 m 11.414,0 c 0,-4.08 -3.277,-6.727 -7.183,-6.727 -3.905,0 -7.182,2.647 -7.182,6.727 0,4.014 3.277,6.727 7.182,6.727 3.906,0 7.183,-2.713 7.183,-6.727"
             style="fill:#ffffff;fill-opacity:1;fill-rule:nonzero;stroke:none"
             id="path52"
             inkscape:connector-curvature="0" /></g><g
           id="g54"
           transform="translate(241.2583,242.2129)"
           style="fill:#ffffff;fill-opacity:1"><path
             d="m 0,0 c 0,-2.625 1.931,-4.253 4.231,-4.253 2.3,0 4.231,1.628 4.231,4.253 0,2.625 -1.931,4.253 -4.231,4.253 C 1.931,4.253 0,2.625 0,0 m 11.414,0 c 0,-4.08 -3.277,-6.727 -7.183,-6.727 -3.906,0 -7.182,2.647 -7.182,6.727 0,4.014 3.276,6.727 7.182,6.727 3.906,0 7.183,-2.713 7.183,-6.727"
             style="fill:#ffffff;fill-opacity:1;fill-rule:nonzero;stroke:none"
             id="path56"
             inkscape:connector-curvature="0" /></g><g
           id="g58"
           transform="translate(259.5513,246.249)"
           style="fill:#ffffff;fill-opacity:1"><path
             d="m 0,0 v -4.861 h 2.625 c 1.715,0 2.691,0.998 2.691,2.452 C 5.316,-0.912 4.231,0 2.625,0 Z m -2.691,-10.546 c -0.13,0 -0.26,0.13 -0.26,0.26 V 2.213 c 0,0.131 0.13,0.261 0.26,0.261 h 5.555 c 3.147,0 5.404,-1.888 5.404,-4.883 0,-3.016 -2.344,-4.795 -5.404,-4.795 H 0 v -3.082 c 0,-0.13 -0.13,-0.26 -0.26,-0.26 z"
             style="fill:#ffffff;fill-opacity:1;fill-rule:nonzero;stroke:none"
             id="path60"
             inkscape:connector-curvature="0" /></g><g
           id="g62"
           transform="translate(132.207,148.7515)"
           style="fill:#ffffff;fill-opacity:1" /></g></g></g></svg>