<?xml version="1.0" encoding="utf-8"?>
<!-- Generator: Adobe Illustrator 25.0.0, SVG Export Plug-In . SVG Version: 6.00 Build 0)  -->
<svg version="1.1" xmlns="http://www.w3.org/2000/svg" xmlns:xlink="http://www.w3.org/1999/xlink" x="0px" y="0px"
	 viewBox="0 0 1366 210" style="enable-background:new 0 0 1366 210;" xml:space="preserve">
<style type="text/css">
	.st0{fill:#FFFFFF;stroke:#FFFFFF;stroke-miterlimit:10;}
	.st1{fill:none;stroke:#FFFFFF;stroke-width:3;stroke-miterlimit:10;}
	.st2{fill:#FFFFFF;stroke:#FFFFFF;stroke-width:3;stroke-miterlimit:10;}
	.st3{stroke:#FFFFFF;stroke-width:3;stroke-miterlimit:10;}
	.st4{fill:none;stroke:#FFFFFF;stroke-width:4;stroke-miterlimit:10;}
</style>
<g id="Layer_1">
	<path class="st0" d="M201.3,55.4c4.6,21,16.8,67.6,18.1,90c2.9-18,17.2-71.3,21.5-90h31.9l-35,123.1h-31.3
		c-4.5-19.7-18.3-74.5-21.4-93c-2.5,20.6-16.1,72.5-20.9,93h-31.2l-35-123.1h32c4.7,20.2,18.8,69.9,21.1,89.9
		c1.6-20,14.1-69.8,18.1-89.9H201.3z"/>
	<path class="st0" d="M288.2,176.1V27.6h27v52.8c0,2.9-0.1,5.9-0.3,8.8c-0.2,2.9-0.5,5.7-0.9,8.5c5.7-6.6,11.3-11.3,17-14.3
		c5.7-2.9,12-4.4,19.1-4.4c7.3,0,13.5,1.2,18.6,3.7s9,6.2,11.7,11.2c1.4,2.6,2.4,5.6,3,8.9c0.6,3.3,0.9,8.4,0.9,15.5v3v54.9h-28.7
		v-46.4c0-11.5-1.3-19.2-4-22.8c-2.7-3.7-7.2-5.5-13.7-5.5c-3.7,0-7.2,0.8-10.3,2.3c-3.1,1.6-5.8,3.8-7.8,6.6
		c-1.6,2.2-2.8,4.8-3.6,7.6c-0.7,2.9-1.1,7.2-1.1,13.1v3.6v41.4H288.2z"/>
	<path class="st0" d="M408.1,43.3c0-4.3,1.6-8.1,4.7-11.2c3.1-3.1,6.9-4.7,11.2-4.7c4.4,0,8.2,1.5,11.3,4.6s4.7,6.8,4.7,11.2
		s-1.6,8.2-4.7,11.3c-3.2,3.1-6.9,4.7-11.3,4.7c-4.3,0-8.1-1.6-11.2-4.8C409.6,51.3,408.1,47.6,408.1,43.3z M411.3,176.1V81.6h27
		v94.5H411.3z"/>
	<path class="st0" d="M534.5,172.9c-3.9,2.2-7.7,3.9-11.8,4.9c-4.1,1.1-8.5,1.6-13.4,1.6c-14.8,0-26.8-4.7-36.1-14.1
		c-9.3-9.4-14-21.6-14-36.7c0-14.7,4.7-26.7,14.1-36s21.5-13.9,36.4-13.9c5,0,9.4,0.5,13.4,1.4c4,1,7.7,2.5,9.7,4.5V112
		c-1.5-2.9-4.8-5.2-8.6-6.8c-3.8-1.6-7.7-2.4-12-2.4c-7.6,0-13.8,2.3-18.4,7s-6.9,10.9-6.9,18.6c0,7.9,2.3,14.2,7,18.9s11,7,19,7
		c4.4,0,8.3-0.8,11.7-2.4s6.5-4.1,9.8-7.5V172.9z"/>
	<path class="st0" d="M554.8,176.1V27.6h27v52.8c0,2.9-0.1,5.9-0.3,8.8c-0.2,2.9-0.5,5.7-0.9,8.5c5.7-6.6,11.3-11.3,17-14.3
		c5.7-2.9,12-4.4,19.1-4.4c7.3,0,13.5,1.2,18.6,3.7s9,6.2,11.7,11.2c1.4,2.6,2.4,5.6,3,8.9c0.6,3.3,0.9,8.4,0.9,15.5v3v54.9h-28.7
		v-46.4c0-11.5-1.3-19.2-4-22.8c-2.7-3.7-7.2-5.5-13.7-5.5c-3.7,0-7.2,0.8-10.3,2.3c-3.1,1.6-5.8,3.8-7.8,6.6
		c-1.6,2.2-2.8,4.8-3.6,7.6c-0.7,2.9-1.1,7.2-1.1,13.1v3.6v41.4H554.8z"/>
	<path class="st0" d="M676.2,162.2c0-4.6,1.6-8.5,4.8-11.8c3.2-3.3,7.1-4.9,11.6-4.9s8.4,1.6,11.6,4.9c3.2,3.3,4.8,7.2,4.8,11.8
		c0,4.5-1.6,8.4-4.8,11.5c-3.2,3.2-7.1,4.7-11.7,4.7c-4.5,0-8.4-1.6-11.6-4.8C677.8,170.5,676.2,166.6,676.2,162.2z"/>
	<path class="st0" d="M737,176.1V27.6h25.3v52.8c0,2.9-0.1,5.9-0.3,8.8c-0.2,2.9-0.5,5.7-0.9,8.5c5.7-6.6,11.3-11.3,17-14.3
		c5.7-2.9,12-4.4,19.1-4.4c7.3,0,13.5,1.2,18.6,3.7s9,6.2,11.7,11.2c1.4,2.6,2.4,5.6,3,8.9c0.6,3.3,0.9,8.4,0.9,15.5v3v54.9h-27
		v-46.4c0-11.5-1.3-19.2-4-22.8c-2.7-3.7-7.2-5.5-13.7-5.5c-3.7,0-7.2,0.8-10.3,2.3c-3.1,1.6-5.8,3.8-7.8,6.6
		c-1.6,2.2-2.8,4.8-3.6,7.6c-0.7,2.9-1.1,7.2-1.1,13.1v3.6v41.4H737z"/>
	<path class="st0" d="M1022,78.6v49.3c0,8.3,1.6,14.2,4.8,17.8c3.2,3.6,8.3,5.4,15.5,5.4c7.1,0,12.2-1.8,15.4-5.4s4.8-9.5,4.8-17.7
		V78.6h27v49.3c0,16.5-3.9,28.7-11.7,36.5c-7.8,7.8-19.8,11.7-36.1,11.7c-16.6,0-28.9-3.9-36.7-11.7c-7.8-7.8-11.7-19.9-11.7-36.5
		V78.6H1022z"/>
	<path class="st0" d="M1142.6,105c2.7-9.2,6.6-16.1,11.7-20.6c5.1-4.6,11.4-6.8,18.9-6.8c1.7,0,4.5,0.3,8.4,1
		c0.8,0.1,1.3,0.2,1.7,0.3l-4.1,29.5c-2-0.8-4.1-1.5-6.1-1.9c-2.1-0.4-4.2-0.6-6.5-0.6c-8.2,0-14.1,2.1-17.7,6.4
		c-3.6,4.3-5.4,11.4-5.4,21.4v41.6h-27V80.7h26.6L1142.6,105z"/>
	<path class="st0" d="M1192.5,156.2l20.9-10.8c0.7,3.6,2.6,6.5,5.6,8.6c3.1,2.1,6.9,3.2,11.4,3.2c4.5,0,8-0.8,10.5-2.4
		c2.5-1.6,3.8-3.9,3.8-6.7c0-4.5-4.5-8.3-13.6-11.4c-2.8-1-5-1.8-6.7-2.4c-11-4.1-18.7-8.3-22.9-12.5c-4.2-4.2-6.4-9.4-6.4-15.6
		c0-9.2,3.6-16.6,10.8-22.3s16.7-8.5,28.5-8.5c8.4,0,15.7,1.7,21.8,5.1c6.2,3.4,10.6,8.2,13.4,14.3l-20,9.9c-1.1-3.5-3-6.2-5.6-8
		c-2.7-1.8-6-2.7-10-2.7c-4,0-7.3,0.8-9.8,2.5s-3.7,3.8-3.7,6.5c0,4.7,6.2,9,18.5,13c1.5,0.4,2.6,0.8,3.3,1.1
		c10.3,3.4,17.6,7.3,21.9,11.8c4.3,4.5,6.5,10.2,6.5,17.2c0,9.3-3.6,16.7-10.8,22.2c-7.2,5.5-16.9,8.2-29.2,8.2
		c-9.7,0-18-1.8-24.8-5.4S1194.8,162.4,1192.5,156.2z"/>
	<path class="st1" d="M914,82c-11.4,0-20.4,3.5-27,10.6c-6.6,7.1-10,16.6-10,28.6c0,11.9,3.3,21.5,10,28.6
		c6.6,7.2,15.6,10.7,27,10.7c11.3,0,20.3-3.6,27.1-10.7c6.8-7.2,10.2-16.7,10.2-28.6c0-11.9-3.4-21.5-10.1-28.6
		C934.4,85.5,925.3,82,914,82z"/>
	<path class="st2" d="M972,121.3c0-33-25.9-59.8-57.9-59.8c-32,0-57.9,26.8-57.9,59.8c0,33,25.9,59.8,57.9,59.8
		C946.1,181,972,154.3,972,121.3z M941,149.8c-6.8,7.2-15.8,10.7-27.1,10.7c-11.4,0-20.4-3.6-27-10.7c-6.6-7.2-10-16.7-10-28.6
		c0-12,3.3-21.6,10-28.6c6.6-7.1,15.6-10.6,27-10.6c11.4,0,20.4,3.6,27.1,10.7c6.7,7.1,10.1,16.6,10.1,28.6
		C951.2,133.1,947.8,142.7,941,149.8z"/>
</g>
<g id="Layer_2">
	<path class="st3" d="M914.1,125.1"/>
	<path class="st3" d="M914.1,97.6"/>
	<path class="st3" d="M933,116.4"/>
	<path class="st3" d="M911.9,126.7"/>
	<path class="st4" d="M913.2,103.4c0,13,0,19.9,0,25.5c0,0.6,0.1,1,0.4,1.2c0,0,0.3,0.3,0.9,0.3c1.5,0,11.3-6.7,12.4-7.5"/>
</g>
</svg>
