<?xml version="1.0" encoding="utf-8"?>
<!-- Generator: Adobe Illustrator 25.0.0, SVG Export Plug-In . SVG Version: 6.00 Build 0)  -->
<svg version="1.1" id="Layer_1" xmlns="http://www.w3.org/2000/svg" xmlns:xlink="http://www.w3.org/1999/xlink" x="0px" y="0px"
	 viewBox="0 0 1920 90" style="enable-background:new 0 0 1920 90;" xml:space="preserve">
<style type="text/css">
	.st0{fill:url(#SVGID_1_);}
	.st1{fill:url(#SVGID_2_);}
	.st2{opacity:0.46;}
	.st3{opacity:7.000000e-02;fill:url(#SVGID_3_);fill-opacity:0.5;}
	.st4{fill:#F2F2F2;fill-opacity:9.000000e-02;}
	.st5{opacity:0.57;}
	.st6{opacity:9.000000e-02;}
	.st7{clip-path:url(#SVGID_5_);}
	.st8{opacity:0.36;fill:url(#SVGID_6_);fill-opacity:0.31;}
	.st9{opacity:0.32;}
	.st10{opacity:0.31;}
	.st11{clip-path:url(#SVGID_7_);}
	.st12{opacity:0.33;fill:url(#SVGID_8_);}
</style>
<linearGradient id="SVGID_1_" gradientUnits="userSpaceOnUse" x1="1044.6929" y1="223.1526" x2="865.7722" y2="-151.5607" gradientTransform="matrix(1 0 0 -1 0 92)">
	<stop  offset="0" style="stop-color:#86D0EF"/>
	<stop  offset="0.5921" style="stop-color:#3A5ACA;stop-opacity:0.91"/>
	<stop  offset="1" style="stop-color:#4000DE"/>
</linearGradient>
<path class="st0" d="M1920.4,0.5v89.9c-196,0-316,0-549,0c-217,0-225.9,0.5-493,0.5c-377.9,0-520,0.5-878,0.5v-91H1920.4z"/>
<radialGradient id="SVGID_2_" cx="0.7265" cy="586.269" r="1.0323" gradientTransform="matrix(-1004.5438 -187.9194 -878.9387 726.1697 517241.4688 -425281.4375)" gradientUnits="userSpaceOnUse">
	<stop  offset="0" style="stop-color:#4A72FF;stop-opacity:0.34"/>
	<stop  offset="6.424581e-02" style="stop-color:#FFFFFF;stop-opacity:0"/>
	<stop  offset="0.2207" style="stop-color:#5684FE;stop-opacity:0.332"/>
	<stop  offset="0.2224" style="stop-color:#9BEEFA;stop-opacity:0.27"/>
	<stop  offset="0.6622" style="stop-color:#3A5ACA;stop-opacity:0.91"/>
</radialGradient>
<path class="st1" d="M1920.4,0.5v89.9c-192,0-209,0-404,0c-229,0-405,0.5-644.6,0.5c-354.6,0-508.2,0.5-871.4,0.5v-91H1920.4z"/>
<g class="st2">
	<image style="overflow:visible;" width="1993" height="164" xlink:href="8889572C.png"  transform="matrix(1 0 0 1 -36 -36)">
	</image>
</g>
<linearGradient id="SVGID_3_" gradientUnits="userSpaceOnUse" x1="652.0873" y1="83.3253" x2="1262.8344" y2="41.5478" gradientTransform="matrix(1 0 0 -1 0 92)">
	<stop  offset="0" style="stop-color:#E4E1ED;stop-opacity:0.41"/>
	<stop  offset="1" style="stop-color:#FFFFFF;stop-opacity:0.55"/>
</linearGradient>
<path class="st3" d="M1920.4,0.5v24c-167.8,23.7-344.3,1.2-500,15.3c-17.4,1.6-62.8,7.8-73.8,9.1c-80.8,9.4-222.2,9.7-471,9.7
	C511.4,58.7,367.4,59,0.4,59V0.9L1920.4,0.5z"/>
<path class="st4" d="M183.4,78.9c51,0,119-22.4,159.5-46.8C382.4,8.4,490.4,0.5,490.4,0.5H0.4V92"/>
<g class="st5">
	<g class="st6">
		<defs>
			<path id="SVGID_4_" class="st6" d="M405.9,91.5C291.4,55.9,521.1,37.9,620.4,29.3c265-23,460-29.3,460-29.3H0.4v91.5"/>
		</defs>
		<clipPath id="SVGID_5_">
			<use xlink:href="#SVGID_4_"  style="overflow:visible;"/>
		</clipPath>
		<g class="st7">
		</g>
	</g>
</g>
<linearGradient id="SVGID_6_" gradientUnits="userSpaceOnUse" x1="1516.0868" y1="96.9882" x2="1845.4468" y2="3.6966" gradientTransform="matrix(1 0 0 -1 0 92)">
	<stop  offset="0" style="stop-color:#FFFFFF"/>
	<stop  offset="0.5625" style="stop-color:#FFFFFF;stop-opacity:0"/>
</linearGradient>
<path class="st8" d="M1495.4,92c-64-18.8-50.5-26.5-51-45.5c-1-38.2-223-18.8-285-46.5c190,0,571,2.6,761,2.6v87.8
	c-83,0-84.8,0-187,0C1587.9,90.4,1680.8,92,1495.4,92z"/>
<g class="st9">
	<g class="st10">
		<defs>
			<path id="SVGID_9_" class="st10" d="M1665.4,74.8c-116.7,4.2-134.2-5.2-161.6-33.5C1459.7-4.2,1420,9.4,1379.4,0.5
				c164.2,0,376.8,2.6,541,2.6V91"/>
		</defs>
		<clipPath id="SVGID_7_">
			<use xlink:href="#SVGID_9_"  style="overflow:visible;"/>
		</clipPath>
		<g class="st11">
		</g>
	</g>
</g>
<linearGradient id="SVGID_8_" gradientUnits="userSpaceOnUse" x1="392.5964" y1="57.5229" x2="764.959" y2="-47.9493">
	<stop  offset="0" style="stop-color:#FFFFFF"/>
	<stop  offset="0.5625" style="stop-color:#FFFFFF;stop-opacity:0"/>
</linearGradient>
<rect x="0.4" y="1.6" class="st12" width="864" height="89.4"/>
</svg>
